<svg height="400" style='style="outline: 5px solid #800000;"' viewBox="0 0 400 400" width="400" xmlns="http://www.w3.org/2000/svg">
<rect fill="#ffffff" height="400" width="400" x="0" y="0"/>
<path d="M200,200 L200,400 L200,400 L200,400 L200,320 L200,320 L520,320 L200,200 L200,200 L200,200 L-160,200 L240,200 L240,200 L240,320 L240,320 L-80,320 L200,200 L520,200 L200,200 L200,-120 L200,560 L200,-160 L200,200 L200,200 L200,360 L200,600 L200,-120 L200,200 L480,200 L200,200 L-160,200 L200,200 L200,520 L200,200 L200,200 L200,200 L200,560 L200,-40 L200,440 L200,200 L200,200 L200,200 L200,200 L200,80 L200,80 L240,80 L240,80 L240,80 L560,80 L-40,80 L200,80 L200,80 L200,80 L200,80 L200,80 L200,-280 L200,280 L200,280 L200,280 L200,280 L520,280 L200,280 L200,240 L200,-40 L200,200" fill="none" stroke="#2f2f2f" stroke-opacity="0.9" stroke-width="5"/>
<rect fill="#ffffff" fill-opacity="0.0" height="400" stroke="#cccccc" stroke-width="15" width="400" x="0" y="0"/>
</svg>